# xmcd
#
# Track frame offsets:
#	150
#	14857
#	27164
#	42921
#	62128
#	82685
#	96941
#	111499
#	128155
#	145562
#	160420
#
# Disc length: 2405 seconds
#
# Revision: 0
# Processed by: cddbd v1.5.1PL0 Copyright (c) Steve Scherf et al.
# Submitted via: dBpowerAMP V4.0
#
DISCID=9009630b
DTITLE=Steve Earle - The Revolution Starts... Now
DYEAR=2004
DGENRE=Country
TTITLE0=The Revolution Starts...
TTITLE1=Home to Houston
TTITLE2=Rich Man's War
TTITLE3=Warrior
TTITLE4=The Gringo's Tale
TTITLE5=Condi, Condi
TTITLE6=F the CC
TTITLE7=Comin' Around
TTITLE8=I Thought You Should Know
TTITLE9=The Seeker
TTITLE10=The Revolution Starts Now
EXTD=
EXTT0=
EXTT1=
EXTT2=
EXTT3=
EXTT4=
EXTT5=
EXTT6=
EXTT7=
EXTT8=
EXTT9=
EXTT10=
PLAYORDER=
